<svg xmlns="http://www.w3.org/2000/svg" viewBox="0 0 121.74 121.74">
  <path d="M121.74,56.77v8.22c-.13,0-.21.27-.17.43.15.65-.08,1.1-.14,1.72-2.9,28.53-25.61,51.33-54.14,54.27-.69.07-1.17.31-1.87.16-.16-.03-.42.04-.43.17h-8.22c-.59,0-1.27-.19-1.89-.26-3.46-.41-6.81-.97-10.07-1.86C16.82,111.96-1.72,85.57.13,56.99,2.3,23.21,31.51-2.01,64.79.13c29.77,1.91,53.82,25.21,56.69,54.9.05.51.07,1.19.27,1.75ZM45.67,35.54h-10.13v50.7h10.13v-50.7ZM86.23,35.53h-30.42v10.14h30.42v-10.14ZM86.23,55.81h-30.42v10.14h30.42v-10.14ZM86.23,76.1h-30.42v10.14h30.42v-10.14Z"/>
</svg>